<svg xmlns="http://www.w3.org/2000/svg" xmlns:xlink="http://www.w3.org/1999/xlink" id="svg_canvas" data-noselect="" viewBox="0 0 800 600" width="800" height="600" preserveAspectRatio="none" version="1.1"><defs/> <g id="background" data-noselect=""><rect fill="#FFFFFF" width="800" height="600" data-noselect=""/> <!----></g> <g id="shape_JZfIU9uh3q" transform="translate(198.06896760746363,207.132187600565) rotate(0,92.867812399435,92.867812399435) scale(1,1)" filter="" style="cursor: move; opacity: 1;"><g><rect fill="rgba(0,0,0,0)" width="205.73412451129553" height="205.73562479887" x="-10" y="-10"/><svg xmlns="http://www.w3.org/2000/svg" xmlns:xlink="http://www.w3.org/1999/xlink" version="1.1" id="图层_1" x="0px" y="0px" style="enable-background:new 0 0 283.465 283.465;" xml:space="preserve" viewBox="18.777008056640625 19 245.572998046875 245.57498168945312" width="185.73412451129553" height="185.73562479887" class="style-removed" preserveAspectRatio="none" data-parent="shape_JZfIU9uh3q">
<path d="M141.564,19c21.662,0,42.013,5.615,59.68,15.463L183.5,55.689  c-12.663-6.181-26.894-9.652-41.936-9.652c-23.305,0-44.662,8.328-61.265,22.169l52.285,57.484c0.75,0.825,1.714,1.924,2.917,3.266  c1.206,1.345,2.456,2.757,3.753,4.238c1.297,1.483,2.501,2.874,3.613,4.169c1.112,1.299,1.9,2.27,2.363,2.919  c0.927-1.297,2.271-3.058,4.03-5.281c1.759-2.223,4.295-5.384,7.643-9.45l41.495-50.389l22.581-27.014  c26.531,22.523,43.371,56.111,43.371,93.64c0,53.516-34.24,99.03-82.006,115.842v-29.191c32.486-15.316,54.97-48.355,54.97-86.651  c0-19.374-5.759-37.4-15.652-52.469L158.988,162.1l-0.571,73.959l0.011-0.001v27.359c-5.514,0.758-11.142,1.158-16.864,1.158  c-67.813,0-122.787-54.973-122.787-122.787c0-18.842,4.249-36.694,11.837-52.649l20.196,22.05  c-3.239,9.608-4.996,19.898-4.996,30.599c0,48.798,36.504,89.068,83.693,94.997l0.576-74.823L87.968,116.39l0.023-0.023L43.54,67.84  C65.953,38.176,101.516,19,141.564,19z" fill-rule="evenodd" clip-rule="evenodd" fill="#003399" stroke-width="0"/>
</svg></g></g><g id="shape_Jpb3xzUR1b" transform="translate(297.28860841033645,-30.45127536631503) rotate(0,359.23029529125995,317.81835000000007) scale(1,1)" filter="" style="cursor: move; opacity: 1;"><g><svg xmlns="http://www.w3.org/2000/svg" xmlns:xlink="http://www.w3.org/1999/xlink" version="1.1" width="544.6" height="635.6367000000001" viewBox="0 0 544.6 635.6367000000001" data-parent="shape_Jpb3xzUR1b"><rect fill="rgba(0,0,0,0)" width="182" height="90" x="90.65" y="272.81835000000007"/><g data-width="181.3" transform="translate(90.65, 0)"><path d="M26.29 3.26L17.68 2.99L18.67-16.50L12.87-16.77L13.33-25.29L19.13-24.93L21.03-62.19L25.11-66.27L67.53-68.44L71.89-64.54L77.78-4.53L74.60 0L62.19 3.26L59.92-4.71L68.98-7.25L65.90-39.16L28.28-37.89L27.65-24.57L61.37-22.84L60.92-14.41L27.20-16.05L26.29 3.26ZM29.28-57.93L28.65-46.41L65.09-47.59L63.91-59.74L29.28-57.93Z" transform="translate(0 349.81835000000007) skewX(0)" fill="rgb(224, 106, 106)" stroke="rgb(224, 106, 106)" stroke-width="0.151" stroke-miterlimit="3" data-glyph-w="90.65" data-glyph-h="90.65" data-glyph-ascender="77.86835" data-glyph-descender="-12.78165"/><path d="M49.77-56.57L37.26-57.65L36.53-37.35L53.03-40.16L54.39-31.64L36.26-28.65L35.17 2.90L26.56 2.72L27.65-27.20L8.97-24.20L7.61-32.54L27.92-35.90L28.74-58.38L14.23-59.74L14.96-68.26L50.58-65.09L49.77-56.57ZM67.81 2.99L62.46-3.63L74.33-13.42L71.43-66.81L80.04-67.26L83.13-11.69L81.49-8.16L67.81 2.99ZM65.18-18.13L56.57-18.76L59.29-57.93L67.81-57.38L65.18-18.13Z" transform="translate(90.65 349.81835000000007) skewX(0)" fill="rgb(224, 106, 106)" stroke="rgb(224, 106, 106)" stroke-width="0.151" stroke-miterlimit="3" data-glyph-w="90.65" data-glyph-h="90.65" data-glyph-ascender="77.86835" data-glyph-descender="-12.78165"/></g><g data-width="181.3" transform="translate(90.65, 0)"><path d="M26.29 3.26L17.68 2.99L18.67-16.50L12.87-16.77L13.33-25.29L19.13-24.93L21.03-62.19L25.11-66.27L67.53-68.44L71.89-64.54L77.78-4.53L74.60 0L62.19 3.26L59.92-4.71L68.98-7.25L65.90-39.16L28.28-37.89L27.65-24.57L61.37-22.84L60.92-14.41L27.20-16.05L26.29 3.26ZM29.28-57.93L28.65-46.41L65.09-47.59L63.91-59.74L29.28-57.93Z" transform="translate(0 349.81835000000007) skewX(0)" fill="rgb(49, 49, 49)" stroke="rgb(49, 49, 49)" stroke-width="0.151" data-glyph-w="90.65" data-glyph-h="90.65" data-glyph-ascender="77.86835" data-glyph-descender="-12.78165"/><path d="M49.77-56.57L37.26-57.65L36.53-37.35L53.03-40.16L54.39-31.64L36.26-28.65L35.17 2.90L26.56 2.72L27.65-27.20L8.97-24.20L7.61-32.54L27.92-35.90L28.74-58.38L14.23-59.74L14.96-68.26L50.58-65.09L49.77-56.57ZM67.81 2.99L62.46-3.63L74.33-13.42L71.43-66.81L80.04-67.26L83.13-11.69L81.49-8.16L67.81 2.99ZM65.18-18.13L56.57-18.76L59.29-57.93L67.81-57.38L65.18-18.13Z" transform="translate(90.65 349.81835000000007) skewX(0)" fill="rgb(49, 49, 49)" stroke="rgb(49, 49, 49)" stroke-width="0.151" data-glyph-w="90.65" data-glyph-h="90.65" data-glyph-ascender="77.86835" data-glyph-descender="-12.78165"/></g></svg></g></g><g id="shape_PTgxePPlW6" transform="translate(366.0610323925364,245.20770240853503) rotate(0,295.99919704124,108.4865) scale(1,1)" filter="" style="cursor: move; opacity: 1;"><g><svg xmlns="http://www.w3.org/2000/svg" xmlns:xlink="http://www.w3.org/1999/xlink" version="1.1" width="325.48" height="216.973" viewBox="0 0 325.48 216.973" data-parent="shape_PTgxePPlW6"><rect fill="rgba(0,0,0,0)" width="206" height="29" x="29.87" y="93.9865"/><g data-width="205.35625000000002" transform="translate(29.87, 0)"><path d="M1.28-3.79L1.28-3.79Q1.28-4.24 1.63-4.72Q1.97-5.20 2.42-5.20L2.42-5.20Q2.57-5.20 2.63-5.14L2.63-5.14Q3.67-4.03 5.78-3.12Q7.89-2.21 9.74-2.21L9.74-2.21Q15.08-2.21 15.08-5.76L15.08-5.76Q15.08-6.96 14.35-7.72Q13.62-8.48 12.44-8.87Q11.26-9.26 9.84-9.53Q8.42-9.80 6.99-10.17Q5.56-10.54 4.38-11.11Q3.20-11.68 2.46-12.84Q1.73-14.01 1.73-15.68L1.73-15.68Q1.73-18.19 3.94-19.55Q6.15-20.91 9.23-20.91L9.23-20.91Q11.62-20.91 13.73-20.12Q15.83-19.33 16.82-17.89L16.82-17.89Q16.85-17.83 16.85-17.74L16.85-17.74Q16.85-17.38 16.35-17.01Q15.86-16.64 15.47-16.64L15.47-16.64Q15.41-16.64 15.11-16.79L15.11-16.79Q12.75-18.73 9.26-18.73L9.26-18.73Q7.14-18.73 5.53-17.94Q3.91-17.15 3.91-15.53L3.91-15.53Q3.91-14.43 4.64-13.71Q5.38-12.99 6.56-12.65Q7.74-12.31 9.17-12.05Q10.60-11.80 12.04-11.41Q13.47-11.02 14.65-10.41Q15.83-9.80 16.56-8.57Q17.29-7.35 17.29-5.59L17.29-5.59Q17.29-0.03 9.95-0.03L9.95-0.03Q7.56-0.03 5.26-0.88Q2.96-1.73 1.49-3.23L1.49-3.23Q1.28-3.44 1.28-3.79Z" transform="translate(0 117.9865) " fill="rgb(49, 49, 49)" stroke="rgb(49, 49, 49)" stroke-width="0.05" data-glyph-w="18.66875" data-glyph-h="35.99335" data-glyph-ascender="28.3765" data-glyph-descender="-7.61685"/><path d="M2.18-0.84L2.18-0.84L2.18-20.10Q2.18-20.91 3.08-20.91L3.08-20.91Q3.73-20.91 4.36-20.34L4.36-20.34L17.06-9.17L17.06-20.10Q17.06-20.91 18.19-20.91L18.19-20.91Q18.64-20.91 18.95-20.70Q19.27-20.49 19.27-20.10L19.27-20.10L19.27-0.84Q19.27-0.45 18.94-0.22Q18.61 0 18.16 0L18.16 0Q17.06 0 17.06-0.84L17.06-0.84L17.06-6.27L4.39-17.41L4.39-0.84Q4.39-0.45 4.06-0.22Q3.73 0 3.29 0L3.29 0Q2.18 0 2.18-0.84Z" transform="translate(18.66875 117.9865) " fill="rgb(49, 49, 49)" stroke="rgb(49, 49, 49)" stroke-width="0.05" data-glyph-w="21.44666" data-glyph-h="35.99335" data-glyph-ascender="28.3765" data-glyph-descender="-7.61685"/><path d="M1.43-10.39L1.43-10.39Q1.43-14.96 3.99-18.01Q6.54-21.06 10.07-21.06Q13.59-21.06 16.03-17.94Q18.46-14.82 18.46-10.48L18.46-10.48Q18.46-5.71 16.08-2.79Q13.71 0.12 10.07 0.15L10.07 0.15Q6.54 0.15 3.99-2.81Q1.43-5.76 1.43-10.39ZM3.64-10.36L3.64-10.36Q3.64-6.96 5.54-4.51Q7.44-2.06 10.07-2.06L10.07-2.06Q12.66-2.06 14.46-4.53Q16.25-6.99 16.25-10.42L16.25-10.42Q16.25-13.71 14.44-16.28Q12.64-18.85 10.07-18.85L10.07-18.85Q7.44-18.85 5.54-16.25Q3.64-13.65 3.64-10.36Z" transform="translate(40.11541 117.9865) " fill="rgb(49, 49, 49)" stroke="rgb(49, 49, 49)" stroke-width="0.05" data-glyph-w="19.95316" data-glyph-h="35.99335" data-glyph-ascender="28.3765" data-glyph-descender="-7.61685"/><path d="M0.99-19.80L0.99-19.80Q0.99-20.25 1.43-20.58Q1.88-20.91 2.33-20.91L2.33-20.91Q2.93-20.91 3.05-20.46L3.05-20.46L7.68-3.58L11.23-19.30Q11.38-19.92 11.69-20.34Q12.01-20.76 12.40-20.76L12.40-20.76Q13.08-20.76 13.41-19.33L13.41-19.33L17.23-3.58L21.89-20.46Q22.04-20.91 22.61-20.91L22.61-20.91Q23.06-20.91 23.51-20.58Q23.96-20.25 23.96-19.80L23.96-19.80Q23.96-19.68 23.90-19.51L23.90-19.51L18.61-1.05Q18.40-0.60 17.98-0.30Q17.56 0 17.23 0Q16.91 0 16.49-0.28Q16.07-0.57 15.83-1.05L15.83-1.05L12.37-13.77L9.05-1.05Q8.84-0.60 8.42-0.30Q8.01 0 7.68 0Q7.35 0 6.93-0.28Q6.51-0.57 6.27-1.05L6.27-1.05L1.05-19.51Q0.99-19.68 0.99-19.80Z" transform="translate(60.068569999999994 117.9865) " fill="rgb(49, 49, 49)" stroke="rgb(49, 49, 49)" stroke-width="0.05" data-glyph-w="24.94145" data-glyph-h="35.99335" data-glyph-ascender="28.3765" data-glyph-descender="-7.61685"/><path d="M2.18-0.84L2.18-0.84L2.18-20.10Q2.18-20.91 3.32-20.91L3.32-20.91Q3.76-20.91 4.08-20.70Q4.39-20.49 4.39-20.10L4.39-20.10L4.39-18.52Q6.54-20.94 9.83-20.94L9.83-20.94Q12.04-20.94 13.62-19.74Q15.20-18.55 15.20-16.43L15.20-16.43Q15.20-15.11 14.50-13.81Q13.80-12.52 12.31-12.04L12.31-12.04Q15.14-11.59 16.65-9.92Q18.16-8.24 18.16-6.33L18.16-6.33Q18.16-3.38 16.25-1.43Q14.34 0.51 10.28 0.51L10.28 0.51Q6.78 0.51 4.33-0.54L4.33-0.54Q4.06 0 3.29 0L3.29 0Q2.18 0 2.18-0.84ZM4.39-10.16L4.39-2.72Q6.30-1.70 9.98-1.70L9.98-1.70Q13.02-1.70 14.49-2.94Q15.95-4.18 15.95-6.00L15.95-6.00Q15.95-8.12 14.13-9.19Q12.31-10.25 9.32-10.25L9.32-10.25Q8.39-10.25 6.66-10.20Q4.93-10.16 4.39-10.16L4.39-10.16ZM4.39-15.50L4.39-12.58Q5.59-12.43 7.05-12.43L7.05-12.43Q9.86-12.43 11.43-13.58Q12.99-14.73 12.99-16.28L12.99-16.28Q12.99-17.56 12.13-18.19Q11.26-18.82 9.83-18.82L9.83-18.82Q8.15-18.82 6.69-18.01Q5.23-17.21 4.39-15.50L4.39-15.50Z" transform="translate(85.01002 117.9865) " fill="rgb(49, 49, 49)" stroke="rgb(49, 49, 49)" stroke-width="0.05" data-glyph-w="19.20641" data-glyph-h="35.99335" data-glyph-ascender="28.3765" data-glyph-descender="-7.61685"/><path d="M1.08-1.11L1.08-1.11Q1.08-1.22 1.14-1.40L1.14-1.40L3.17-6.78L1.94-6.78Q1.14-6.78 1.14-7.92L1.14-7.92Q1.14-8.36 1.34-8.68Q1.55-8.99 1.94-8.99L1.94-8.99L4.00-8.99L8.15-19.86Q8.39-20.34 8.81-20.63Q9.23-20.91 9.56-20.91Q9.89-20.91 10.31-20.61Q10.72-20.31 10.93-19.86L10.93-19.86L15.08-8.99L17.03-8.99Q17.41-8.99 17.64-8.66Q17.86-8.33 17.86-7.89L17.86-7.89Q17.86-6.78 17.03-6.78L17.03-6.78L15.95-6.78L18.01-1.40Q18.07-1.22 18.07-1.11L18.07-1.11Q18.07-0.66 17.62-0.33Q17.18 0 16.73 0L16.73 0Q16.25 0 16.01-0.45L16.01-0.45L13.59-6.78L5.56-6.78L3.14-0.45Q2.90 0 2.42 0L2.42 0Q1.97 0 1.52-0.33Q1.08-0.66 1.08-1.11ZM9.56-17.32L6.39-8.99L12.72-8.99L9.56-17.32Z" transform="translate(104.21643 117.9865) " fill="rgb(49, 49, 49)" stroke="rgb(49, 49, 49)" stroke-width="0.05" data-glyph-w="19.08693" data-glyph-h="35.99335" data-glyph-ascender="28.3765" data-glyph-descender="-7.61685"/><path d="M2.18-0.84L2.18-0.84L2.18-20.10Q2.18-20.91 3.32-20.91L3.32-20.91Q3.76-20.91 4.08-20.70Q4.39-20.49 4.39-20.10L4.39-20.10L4.39-2.18L14.19-2.18Q14.58-2.18 14.80-1.85Q15.02-1.52 15.02-1.08L15.02-1.08Q15.02 0 14.19 0L14.19 0L3.91 0Q2.18 0 2.18-0.84Z" transform="translate(123.30336 117.9865) " fill="rgb(49, 49, 49)" stroke="rgb(49, 49, 49)" stroke-width="0.05" data-glyph-w="15.29344" data-glyph-h="35.99335" data-glyph-ascender="28.3765" data-glyph-descender="-7.61685"/><path d="M2.18-0.84L2.18-0.84L2.18-20.10Q2.18-20.91 3.32-20.91L3.32-20.91Q3.76-20.91 4.08-20.70Q4.39-20.49 4.39-20.10L4.39-20.10L4.39-2.18L14.19-2.18Q14.58-2.18 14.80-1.85Q15.02-1.52 15.02-1.08L15.02-1.08Q15.02 0 14.19 0L14.19 0L3.91 0Q2.18 0 2.18-0.84Z" transform="translate(138.5968 117.9865) " fill="rgb(49, 49, 49)" stroke="rgb(49, 49, 49)" stroke-width="0.05" data-glyph-w="15.29344" data-glyph-h="35.99335" data-glyph-ascender="28.3765" data-glyph-descender="-7.61685"/><path d="" transform="translate(153.89024 117.9865) " fill="rgb(49, 49, 49)" stroke="rgb(49, 49, 49)" stroke-width="0.05" data-glyph-w="11.88826" data-glyph-h="29.87" data-glyph-ascender="26.285600000000002" data-glyph-descender="-3.5844"/><path d="M2.18-0.84L2.18-0.84L2.18-19.42Q2.18-20.88 2.96-20.88L2.96-20.88L18.31-20.88Q18.70-20.88 18.92-20.55Q19.15-20.22 19.15-19.77L19.15-19.77Q19.15-18.67 18.31-18.67L18.31-18.67L4.39-18.67L4.39-12.81L15.62-12.81Q16.01-12.81 16.23-12.49Q16.46-12.16 16.46-11.71L16.46-11.71Q16.46-10.60 15.62-10.60L15.62-10.60L4.39-10.60L4.39-0.84Q4.39-0.45 4.05-0.22Q3.70 0 3.26 0L3.26 0Q2.18 0 2.18-0.84Z" transform="translate(165.7785 117.9865) " fill="rgb(49, 49, 49)" stroke="rgb(49, 49, 49)" stroke-width="0.05" data-glyph-w="19.505110000000002" data-glyph-h="35.99335" data-glyph-ascender="28.3765" data-glyph-descender="-7.61685"/><path d="M2.18-1.52L2.18-1.52L2.18-19.42Q2.18-20.88 2.96-20.88L2.96-20.88L18.31-20.88Q18.70-20.88 18.92-20.55Q19.15-20.22 19.15-19.77L19.15-19.77Q19.15-18.67 18.31-18.67L18.31-18.67L4.39-18.67L4.39-12.81L15.62-12.81Q16.01-12.81 16.23-12.49Q16.46-12.16 16.46-11.71L16.46-11.71Q16.46-10.60 15.62-10.60L15.62-10.60L4.39-10.60L4.39-2.21L18.31-2.21Q18.70-2.21 18.92-1.88Q19.15-1.55 19.15-1.11L19.15-1.11Q19.15 0 18.31 0L18.31 0L2.96 0Q2.45 0 2.31-0.36Q2.18-0.72 2.18-1.52Z" transform="translate(185.28361 117.9865) " fill="rgb(49, 49, 49)" stroke="rgb(49, 49, 49)" stroke-width="0.05" data-glyph-w="20.07264" data-glyph-h="35.99335" data-glyph-ascender="28.3765" data-glyph-descender="-7.61685"/></g></svg></g></g>  <!----><defs><pattern id="wm_tile" x="0" y="0" width="20%" height="27%" patternunits="objectBoundingBox"><g id="wm_lm" transform="translate(-188.000000, -323.000000)" fill="#cccccc"><text font-size="15" transform="translate(270.490979, 373.245789) rotate(-390.000000) translate(-270.490979, -373.245789)"><tspan x="187.490979" opacity=".3" y="378.245789">copyright © copyright © </tspan></text></g></pattern></defs></svg>